<svg width="24" height="22" viewBox="0 0 24 22" fill="none" xmlns="http://www.w3.org/2000/svg">
<g filter="url(#filter0_d_2587_370)">
<path fill-rule="evenodd" clip-rule="evenodd" d="M19.1668 11.9993V4.66602C19.1668 3.56145 18.2714 2.66602 17.1668 2.66602L6.83349 2.66603C5.72893 2.66603 4.8335 3.56146 4.8335 4.66603V11.9993C4.8335 13.1039 5.72893 13.9993 6.8335 13.9993L17.1668 13.9993C18.2714 13.9993 19.1668 13.1039 19.1668 11.9993ZM17.8335 6.17232V11.9993C17.8335 12.3675 17.535 12.666 17.1668 12.666L6.8335 12.666C6.46531 12.666 6.16683 12.3675 6.16683 11.9993L6.16683 6.17223L10.8756 9.3742C11.5543 9.83573 12.4461 9.83573 13.1248 9.3742L17.8335 6.17232ZM17.8259 4.56509C17.7773 4.24479 17.5007 3.99935 17.1668 3.99935L6.83349 3.99936C6.49965 3.99936 6.22311 4.24476 6.17443 4.56501L11.6254 8.27164C11.8516 8.42548 12.1489 8.42548 12.3751 8.27164L17.8259 4.56509Z" fill="white"/>
</g>
<defs>
<filter id="filter0_d_2587_370" x="0" y="0" width="24" height="24" filterUnits="userSpaceOnUse" color-interpolation-filters="sRGB">
<feFlood flood-opacity="0" result="BackgroundImageFix"/>
<feColorMatrix in="SourceAlpha" type="matrix" values="0 0 0 0 0 0 0 0 0 0 0 0 0 0 0 0 0 0 127 0" result="hardAlpha"/>
<feOffset dy="4"/>
<feGaussianBlur stdDeviation="2"/>
<feComposite in2="hardAlpha" operator="out"/>
<feColorMatrix type="matrix" values="0 0 0 0 0 0 0 0 0 0 0 0 0 0 0 0 0 0 0.25 0"/>
<feBlend mode="normal" in2="BackgroundImageFix" result="effect1_dropShadow_2587_370"/>
<feBlend mode="normal" in="SourceGraphic" in2="effect1_dropShadow_2587_370" result="shape"/>
</filter>
</defs>
</svg>
