<svg width="1845" height="912" viewBox="0 0 1845 912" fill="none" xmlns="http://www.w3.org/2000/svg">
<path d="M72.5498 766C32.4434 766 0 798.443 0 838.55C0 878.557 32.4434 911.1 72.5498 911.1C112.557 911.1 145.1 878.656 145.1 838.55C145 798.443 112.557 766 72.5498 766ZM72.5498 906.422C35.0309 906.422 4.67742 876.069 4.67742 838.55C4.67742 801.031 35.0309 770.677 72.5498 770.677C110.069 770.677 140.422 801.031 140.422 838.55C140.422 875.969 109.969 906.422 72.5498 906.422Z" fill="white"/>
<path d="M72.5498 781.625C41.2011 781.625 15.7241 807.102 15.7241 838.451C15.7241 869.799 41.2011 895.276 72.5498 895.276C103.898 895.276 129.375 869.899 129.375 838.55C129.375 807.102 103.898 781.625 72.5498 781.625ZM72.5498 886.618C45.9781 886.618 24.3823 865.022 24.3823 838.451C24.3823 811.879 45.9781 790.283 72.5498 790.283C99.1215 790.283 120.717 811.879 120.717 838.451C120.717 865.022 99.1215 886.618 72.5498 886.618Z" fill="white"/>
<path d="M72.5503 806.604C54.9353 806.604 40.6045 820.934 40.6045 838.549C40.6045 856.164 54.8358 870.495 72.5503 870.495C90.1652 870.495 104.496 856.164 104.496 838.549C104.397 820.934 90.1652 806.604 72.5503 806.604ZM72.5503 855.667C63.0959 855.667 55.4329 848.004 55.4329 838.549C55.4329 829.095 63.0959 821.432 72.5503 821.432C82.0046 821.432 89.6676 829.095 89.6676 838.549C89.6676 848.004 82.0046 855.667 72.5503 855.667Z" fill="white"/>
<g opacity="0.6">
<path d="M1831.3 464.921L1831.3 453L1863 453L1863 484.699L1851.17 484.699L1851.17 464.921L1831.3 464.921Z" fill="white"/>
<path d="M1809.9 486.326L1809.9 474.495L1841.6 474.495L1841.6 506.104L1829.68 506.104L1829.68 486.326L1809.9 486.326Z" fill="white"/>
<path d="M1788.49 507.818L1788.49 495.897L1820.1 495.897L1820.1 527.596L1808.27 527.596L1808.27 507.818L1788.49 507.818Z" fill="white"/>
<path d="M1767 529.222L1767 517.301L1798.7 517.301L1798.7 549L1786.78 549L1786.78 529.222L1767 529.222Z" fill="white"/>
</g>
<path opacity="0.6" d="M170 33.9782C160.638 43.3406 145.384 43.3406 136.022 33.9782C126.659 24.6158 126.659 9.36241 136.022 0L170 33.9782Z" fill="white"/>
</svg>
